<svg width="31" height="34" viewBox="0 0 31 34" fill="none" xmlns="http://www.w3.org/2000/svg">
<path d="M0.62207 18.4238C0.62207 20.4941 1.01758 22.4473 1.80859 24.2832C2.59961 26.1094 3.68848 27.7158 5.0752 29.1025C6.47168 30.4893 8.08301 31.5781 9.90918 32.3691C11.7354 33.1602 13.6836 33.5557 15.7539 33.5557C17.8242 33.5557 19.7725 33.1602 21.5986 32.3691C23.4248 31.5781 25.0361 30.4893 26.4326 29.1025C27.8291 27.7158 28.9229 26.1094 29.7139 24.2832C30.5049 22.4473 30.9004 20.4941 30.9004 18.4238C30.9004 16.6172 30.5928 14.8984 29.9775 13.2676C29.3623 11.627 28.5029 10.1475 27.3994 8.8291C26.3057 7.50098 25.0215 6.3877 23.5469 5.48926C22.0723 4.59082 20.4805 3.96094 18.7715 3.59961V1.46094C18.7715 0.894531 18.5957 0.542969 18.2441 0.40625C17.8926 0.259766 17.4922 0.347656 17.043 0.669922L12.1211 4.15625C11.75 4.41992 11.5645 4.73242 11.5645 5.09375C11.5645 5.45508 11.75 5.76758 12.1211 6.03125L17.0283 9.53223C17.4775 9.86426 17.8779 9.96191 18.2295 9.8252C18.5908 9.67871 18.7715 9.32227 18.7715 8.75586V6.67578C20.0898 7.00781 21.3008 7.54004 22.4043 8.27246C23.5176 8.99512 24.4844 9.87891 25.3047 10.9238C26.125 11.959 26.7598 13.1113 27.209 14.3809C27.6582 15.6504 27.8828 16.998 27.8828 18.4238C27.8828 20.1133 27.5703 21.6953 26.9453 23.1699C26.3301 24.6348 25.4658 25.9238 24.3525 27.0371C23.2393 28.1406 21.9502 29.0049 20.4854 29.6299C19.0205 30.2549 17.4434 30.5674 15.7539 30.5674C14.0742 30.5674 12.4971 30.2549 11.0225 29.6299C9.54785 29.0049 8.25391 28.1406 7.14062 27.0371C6.03711 25.9238 5.17285 24.6348 4.54785 23.1699C3.92285 21.6953 3.61035 20.1133 3.61035 18.4238C3.61035 17.1152 3.80566 15.8701 4.19629 14.6885C4.59668 13.5068 5.14844 12.4229 5.85156 11.4365C6.56445 10.4502 7.39941 9.59082 8.35645 8.8584C8.69824 8.56543 8.91309 8.22363 9.00098 7.83301C9.09863 7.43262 9.01562 7.05176 8.75195 6.69043C8.50781 6.3584 8.17578 6.17285 7.75586 6.13379C7.3457 6.08496 6.94531 6.2168 6.55469 6.5293C5.36328 7.41797 4.32324 8.4873 3.43457 9.7373C2.5459 10.9873 1.85254 12.3545 1.35449 13.8389C0.866211 15.3135 0.62207 16.8418 0.62207 18.4238ZM11.623 24.5469C11.9453 24.5469 12.1992 24.4492 12.3848 24.2539C12.5801 24.0488 12.6777 23.7705 12.6777 23.4189V14.3223C12.6777 13.8828 12.5703 13.5557 12.3555 13.3408C12.1406 13.1162 11.8379 13.0039 11.4473 13.0039C11.2227 13.0039 11.0078 13.0479 10.8027 13.1357C10.5977 13.2139 10.3535 13.3604 10.0703 13.5752L8.18066 14.9229C7.98535 15.0693 7.83887 15.2256 7.74121 15.3916C7.65332 15.5479 7.60938 15.7236 7.60938 15.9189C7.60938 16.1826 7.69727 16.4121 7.87305 16.6074C8.05859 16.793 8.2832 16.8857 8.54688 16.8857C8.71289 16.8857 8.84961 16.8613 8.95703 16.8125C9.07422 16.7539 9.20117 16.6611 9.33789 16.5342L10.583 15.5381V23.4189C10.583 23.7607 10.6758 24.0342 10.8613 24.2393C11.0469 24.4443 11.3008 24.5469 11.623 24.5469ZM18.9766 24.6934C20.207 24.6934 21.1934 24.332 21.9355 23.6094C22.6777 22.877 23.0488 21.9053 23.0488 20.6943C23.0488 19.6006 22.7217 18.7168 22.0674 18.043C21.4131 17.3594 20.583 17.0176 19.5771 17.0176C19.1084 17.0176 18.6592 17.125 18.2295 17.3398C17.7998 17.5449 17.4824 17.833 17.2773 18.2041H17.3213L17.5703 15.04H21.7744C22.0381 15.04 22.2578 14.9521 22.4336 14.7764C22.6094 14.6006 22.6973 14.3711 22.6973 14.0879C22.6973 13.8145 22.6094 13.5947 22.4336 13.4287C22.2578 13.2529 22.0381 13.165 21.7744 13.165H17.1309C16.3105 13.165 15.8662 13.6094 15.7979 14.498L15.5049 18.6729C15.4756 19.0635 15.5586 19.3613 15.7539 19.5664C15.9492 19.7617 16.2227 19.8594 16.5742 19.8594C16.8281 19.8594 17.0283 19.8301 17.1748 19.7715C17.3311 19.7031 17.5068 19.5957 17.7021 19.4492C17.9658 19.2148 18.21 19.0439 18.4346 18.9365C18.6689 18.8291 18.9277 18.7754 19.2109 18.7754C19.748 18.7754 20.1777 18.9561 20.5 19.3174C20.832 19.6787 20.998 20.1572 20.998 20.7529C20.998 21.3486 20.8125 21.8467 20.4414 22.2471C20.0801 22.6377 19.6162 22.833 19.0498 22.833C18.6299 22.833 18.2539 22.7256 17.9219 22.5107C17.5996 22.2861 17.3457 21.998 17.1602 21.6465C17.0527 21.4707 16.9258 21.334 16.7793 21.2363C16.6426 21.1289 16.4717 21.0752 16.2666 21.0752C16.0029 21.0752 15.7832 21.1631 15.6074 21.3389C15.4414 21.5146 15.3584 21.7441 15.3584 22.0273C15.3584 22.125 15.3682 22.2275 15.3877 22.335C15.4072 22.4424 15.4365 22.5498 15.4756 22.6572C15.6709 23.165 16.0762 23.6338 16.6914 24.0635C17.3164 24.4834 18.0781 24.6934 18.9766 24.6934Z" fill="black"/>
</svg>
