<svg width="31" height="34" viewBox="0 0 31 34" fill="none" xmlns="http://www.w3.org/2000/svg">
<path d="M0.62207 18.4238C0.62207 20.4941 1.01758 22.4473 1.80859 24.2832C2.59961 26.1094 3.68848 27.7158 5.0752 29.1025C6.47168 30.4893 8.08301 31.5781 9.90918 32.3691C11.7354 33.1602 13.6836 33.5557 15.7539 33.5557C17.8242 33.5557 19.7725 33.1602 21.5986 32.3691C23.4248 31.5781 25.0361 30.4893 26.4326 29.1025C27.8291 27.7158 28.9229 26.1094 29.7139 24.2832C30.5049 22.4473 30.9004 20.4941 30.9004 18.4238C30.9004 16.8418 30.6514 15.3135 30.1533 13.8389C29.665 12.3545 28.9766 10.9873 28.0879 9.7373C27.1992 8.4873 26.1592 7.41797 24.9678 6.5293C24.5771 6.2168 24.1719 6.08496 23.752 6.13379C23.332 6.17285 23 6.3584 22.7559 6.69043C22.502 7.05176 22.4189 7.43262 22.5068 7.83301C22.5947 8.22363 22.8096 8.56543 23.1514 8.8584C24.1084 9.59082 24.9434 10.4502 25.6562 11.4365C26.3691 12.4229 26.9209 13.5068 27.3115 14.6885C27.7021 15.8701 27.8975 17.1152 27.8975 18.4238C27.8975 20.1133 27.585 21.6953 26.96 23.1699C26.335 24.6348 25.4658 25.9238 24.3525 27.0371C23.249 28.1406 21.96 29.0049 20.4854 29.6299C19.0205 30.2549 17.4434 30.5674 15.7539 30.5674C14.0742 30.5674 12.4971 30.2549 11.0225 29.6299C9.55762 29.0049 8.26855 28.1406 7.15527 27.0371C6.05176 25.9238 5.1875 24.6348 4.5625 23.1699C3.9375 21.6953 3.625 20.1133 3.625 18.4238C3.625 16.998 3.84961 15.6504 4.29883 14.3809C4.75781 13.1113 5.39746 11.959 6.21777 10.9238C7.03809 9.87891 8.00488 8.99512 9.11816 8.27246C10.2314 7.54004 11.4424 7.00781 12.751 6.67578V8.77051C12.751 9.32715 12.9268 9.67871 13.2783 9.8252C13.6299 9.96191 14.0303 9.86914 14.4795 9.54688L19.4014 6.0459C19.7725 5.79199 19.958 5.48438 19.958 5.12305C19.958 4.76172 19.7725 4.44922 19.4014 4.18555L14.4941 0.68457C14.0352 0.352539 13.6299 0.259766 13.2783 0.40625C12.9268 0.542969 12.751 0.894531 12.751 1.46094V3.59961C11.0322 3.96094 9.43555 4.59082 7.96094 5.48926C6.49609 6.3877 5.21191 7.50098 4.1084 8.8291C3.01465 10.1475 2.16016 11.627 1.54492 13.2676C0.929688 14.8984 0.62207 16.6172 0.62207 18.4238ZM11.5498 24.5469C11.8721 24.5469 12.126 24.4492 12.3115 24.2539C12.5068 24.0488 12.6045 23.7705 12.6045 23.4189V14.3223C12.6045 13.8828 12.4971 13.5557 12.2822 13.3408C12.0674 13.1162 11.7646 13.0039 11.374 13.0039C11.1494 13.0039 10.9346 13.0479 10.7295 13.1357C10.5244 13.2139 10.2803 13.3604 9.99707 13.5752L8.10742 14.9229C7.91211 15.0693 7.76562 15.2256 7.66797 15.3916C7.58008 15.5479 7.53613 15.7236 7.53613 15.9189C7.53613 16.1826 7.62402 16.4121 7.7998 16.6074C7.98535 16.793 8.20996 16.8857 8.47363 16.8857C8.63965 16.8857 8.77637 16.8613 8.88379 16.8125C9.00098 16.7539 9.12793 16.6611 9.26465 16.5342L10.5098 15.5381V23.4189C10.5098 23.7607 10.6025 24.0342 10.7881 24.2393C10.9736 24.4443 11.2275 24.5469 11.5498 24.5469ZM18.9033 24.6934C20.1338 24.6934 21.1201 24.332 21.8623 23.6094C22.6045 22.877 22.9756 21.9053 22.9756 20.6943C22.9756 19.6006 22.6484 18.7168 21.9941 18.043C21.3398 17.3594 20.5098 17.0176 19.5039 17.0176C19.0352 17.0176 18.5859 17.125 18.1562 17.3398C17.7266 17.5449 17.4092 17.833 17.2041 18.2041H17.248L17.4971 15.04H21.7012C21.9648 15.04 22.1846 14.9521 22.3604 14.7764C22.5361 14.6006 22.624 14.3711 22.624 14.0879C22.624 13.8145 22.5361 13.5947 22.3604 13.4287C22.1846 13.2529 21.9648 13.165 21.7012 13.165H17.0576C16.2373 13.165 15.793 13.6094 15.7246 14.498L15.4316 18.6729C15.4023 19.0635 15.4854 19.3613 15.6807 19.5664C15.876 19.7617 16.1494 19.8594 16.501 19.8594C16.7549 19.8594 16.9551 19.8301 17.1016 19.7715C17.2578 19.7031 17.4336 19.5957 17.6289 19.4492C17.8926 19.2148 18.1367 19.0439 18.3613 18.9365C18.5957 18.8291 18.8545 18.7754 19.1377 18.7754C19.6748 18.7754 20.1045 18.9561 20.4268 19.3174C20.7588 19.6787 20.9248 20.1572 20.9248 20.7529C20.9248 21.3486 20.7393 21.8467 20.3682 22.2471C20.0068 22.6377 19.543 22.833 18.9766 22.833C18.5566 22.833 18.1807 22.7256 17.8486 22.5107C17.5264 22.2861 17.2725 21.998 17.0869 21.6465C16.9795 21.4707 16.8525 21.334 16.7061 21.2363C16.5693 21.1289 16.3984 21.0752 16.1934 21.0752C15.9297 21.0752 15.71 21.1631 15.5342 21.3389C15.3682 21.5146 15.2852 21.7441 15.2852 22.0273C15.2852 22.125 15.2949 22.2275 15.3145 22.335C15.334 22.4424 15.3633 22.5498 15.4023 22.6572C15.5977 23.165 16.0029 23.6338 16.6182 24.0635C17.2432 24.4834 18.0049 24.6934 18.9033 24.6934Z" fill="black"/>
</svg>
